<svg width="63" height="63" viewBox="0 0 93 93" fill="none" xmlns="http://www.w3.org/2000/svg">
<circle cx="46.5" cy="46.5" r="46.5" fill="#393C46" fill-opacity="0.32"/>
<path d="M61.0138 38.3385C60.5626 37.2938 59.912 36.3472 59.0985 35.5515C58.2844 34.7534 57.3245 34.1192 56.271 33.6833C55.1787 33.2296 54.0071 32.9973 52.8242 33C51.1648 33 49.5457 33.4544 48.1387 34.3128C47.8021 34.5181 47.4823 34.7436 47.1794 34.9893C46.8765 34.7436 46.5567 34.5181 46.2201 34.3128C44.8131 33.4544 43.194 33 41.5346 33C40.3396 33 39.1817 33.2289 38.0878 33.6833C37.0308 34.1209 36.0783 34.7504 35.2603 35.5515C34.4457 36.3463 33.795 37.2932 33.345 38.3385C32.8772 39.4258 32.6382 40.5803 32.6382 41.7685C32.6382 42.8894 32.8671 44.0574 33.3215 45.2456C33.7018 46.2386 34.2471 47.2686 34.9439 48.3087C36.048 49.9547 37.566 51.6714 39.451 53.4116C42.5747 56.2963 45.6681 58.289 45.7993 58.3697L46.5971 58.8814C46.9505 59.1069 47.4049 59.1069 47.7584 58.8814L48.5561 58.3697C48.6874 58.2856 51.7774 56.2963 54.9044 53.4116C56.7894 51.6714 58.3075 49.9547 59.4115 48.3087C60.1083 47.2686 60.657 46.2386 61.034 45.2456C61.4884 44.0574 61.7173 42.8894 61.7173 41.7685C61.7206 40.5803 61.4816 39.4258 61.0138 38.3385V38.3385Z" fill="#606470"/>
<mask id="mask0_1014_184" style="mask-type:alpha" maskUnits="userSpaceOnUse" x="32" y="42" width="30" height="18">
<rect x="32" y="42.5747" width="30" height="16.5957" fill="white"/>
</mask>
<g mask="url(#mask0_1014_184)">
<path d="M61.0138 38.3385C60.5626 37.2938 59.912 36.3472 59.0985 35.5515C58.2844 34.7534 57.3245 34.1192 56.271 33.6833C55.1787 33.2296 54.0071 32.9973 52.8242 33C51.1648 33 49.5457 33.4544 48.1387 34.3128C47.8021 34.5181 47.4823 34.7436 47.1794 34.9893C46.8765 34.7436 46.5567 34.5181 46.2201 34.3128C44.8131 33.4544 43.194 33 41.5346 33C40.3396 33 39.1817 33.2289 38.0878 33.6833C37.0308 34.1209 36.0783 34.7504 35.2603 35.5515C34.4457 36.3463 33.795 37.2932 33.345 38.3385C32.8772 39.4258 32.6382 40.5803 32.6382 41.7685C32.6382 42.8894 32.8671 44.0574 33.3215 45.2456C33.7018 46.2386 34.2471 47.2686 34.9439 48.3087C36.048 49.9547 37.566 51.6714 39.451 53.4116C42.5747 56.2963 45.6681 58.289 45.7993 58.3697L46.5971 58.8814C46.9505 59.1069 47.4049 59.1069 47.7584 58.8814L48.5561 58.3697C48.6874 58.2856 51.7774 56.2963 54.9044 53.4116C56.7894 51.6714 58.3075 49.9547 59.4115 48.3087C60.1083 47.2686 60.657 46.2386 61.034 45.2456C61.4884 44.0574 61.7173 42.8894 61.7173 41.7685C61.7206 40.5803 61.4816 39.4258 61.0138 38.3385V38.3385Z" fill="#CC7474"/>
</g>
</svg>
