<svg width="63" height="63" viewBox="0 0 63 63" fill="none" xmlns="http://www.w3.org/2000/svg">
<circle cx="31.5" cy="31.5" r="31.5" fill="#393C46" fill-opacity="0.32"/>
<g clip-path="url(#clip0_519_136)">
<path d="M31.5 46C35.3456 46 39.0338 44.4723 41.753 41.753C44.4723 39.0338 46 35.3456 46 31.5C46 27.6544 44.4723 23.9662 41.753 21.247C39.0338 18.5277 35.3456 17 31.5 17C27.6544 17 23.9662 18.5277 21.247 21.247C18.5277 23.9662 17 27.6544 17 31.5C17 35.3456 18.5277 39.0338 21.247 41.753C23.9662 44.4723 27.6544 46 31.5 46ZM31.5 19.7188C34.6246 19.7188 37.6212 20.96 39.8306 23.1694C42.04 25.3788 43.2812 28.3754 43.2812 31.5C43.2812 34.6246 42.04 37.6212 39.8306 39.8306C37.6212 42.04 34.6246 43.2812 31.5 43.2812C28.3754 43.2812 25.3788 42.04 23.1694 39.8306C20.96 37.6212 19.7188 34.6246 19.7188 31.5C19.7188 28.3754 20.96 25.3788 23.1694 23.1694C25.3788 20.96 28.3754 19.7188 31.5 19.7188Z" fill="#56DE26"/>
<path d="M35.1245 36.0313C35.1245 38.5344 33.5023 40.5626 31.4995 40.5626C29.4967 40.5626 27.8745 38.5344 27.8745 36.0313C27.8745 33.5283 29.4967 31.5001 31.4995 31.5001C33.5023 31.5001 35.1245 33.5283 35.1245 36.0313ZM28.7808 26.6299C28.5403 26.6299 28.3097 26.5348 28.1392 26.3653C27.5918 25.8179 26.343 25.8179 25.7956 26.3653C25.6247 26.5303 25.3958 26.6217 25.1581 26.6196C24.9205 26.6176 24.6932 26.5222 24.5252 26.3542C24.3572 26.1862 24.2619 25.9589 24.2598 25.7213C24.2577 25.4837 24.3491 25.2547 24.5142 25.0838C25.7757 23.8223 28.1591 23.8223 29.4206 25.0838C29.547 25.2107 29.6331 25.3721 29.6678 25.5478C29.7026 25.7235 29.6845 25.9056 29.6158 26.071C29.5472 26.2364 29.431 26.3778 29.2821 26.4773C29.1332 26.5767 28.9581 26.6298 28.779 26.6299H28.7808ZM37.8433 26.6299C37.6028 26.6299 37.3722 26.5348 37.2017 26.3653C36.6543 25.8179 35.4055 25.8179 34.8581 26.3653C34.6872 26.5303 34.4583 26.6217 34.2206 26.6196C33.983 26.6176 33.7557 26.5222 33.5877 26.3542C33.4197 26.1862 33.3244 25.9589 33.3223 25.7213C33.3202 25.4837 33.4116 25.2547 33.5767 25.0838C34.8382 23.8223 37.2216 23.8223 38.4831 25.0838C38.6095 25.2107 38.6956 25.3721 38.7303 25.5478C38.7651 25.7235 38.747 25.9056 38.6783 26.071C38.6097 26.2364 38.4935 26.3778 38.3446 26.4773C38.1957 26.5767 38.0206 26.6298 37.8415 26.6299H37.8433Z" fill="#56DE26"/>
</g>
<defs>
<clipPath id="clip0_519_136">
<rect width="29" height="29" fill="white" transform="translate(17 17)"/>
</clipPath>
</defs>
</svg>
